<svg xmlns="http://www.w3.org/2000/svg" viewBox="0 0 32 32">
  <title>Read Only View: book with a lock</title>
  <rect width="32" height="32" rx="7" fill="#7054bd"/>
  <path d="M7 6h14a2 2 0 0 1 2 2v17H9a3 3 0 0 1-3-3V7a1 1 0 0 1 1-1Z" fill="#fff"/>
  <path d="M10 6v14M7 22h8" fill="none" stroke="#7054bd" stroke-width="2"/>
  <path d="M20 18v-3a3 3 0 0 1 6 0v3" fill="none" stroke="#7054bd" stroke-width="5"/>
  <path d="M20 18v-3a3 3 0 0 1 6 0v3" fill="none" stroke="#fff" stroke-width="2"/>
  <rect x="17" y="17" width="12" height="11" rx="3" fill="#7054bd"/>
  <rect x="18.5" y="18.5" width="9" height="8" rx="1.5" fill="#fff"/>
  <path d="M23 21.5v2" stroke="#7054bd" stroke-width="2" stroke-linecap="round"/>
</svg>
